<?xml version="1.0" encoding="UTF-8" standalone="no"?>
<!DOCTYPE svg PUBLIC "-//W3C//DTD SVG 1.1//EN" "http://www.w3.org/Graphics/SVG/1.1/DTD/svg11.dtd">
<!-- Generated by Microsoft Visio, SVG Export awesome_moleculer.svg Page-1 -->
<svg xmlns="http://www.w3.org/2000/svg" xmlns:xlink="http://www.w3.org/1999/xlink" xmlns:ev="http://www.w3.org/2001/xml-events"
		xmlns:v="http://schemas.microsoft.com/visio/2003/SVGExtensions/" width="8.73147in" height="5.76172in"
		viewBox="0 0 628.666 414.844" xml:space="preserve" color-interpolation-filters="sRGB" class="st6">
	<v:documentProperties v:langID="1033" v:metric="true" v:viewMarkup="false">
		<v:userDefs>
			<v:ud v:nameU="msvNoAutoConnect" v:val="VT0(1):26"/>
		</v:userDefs>
	</v:documentProperties>

	<style type="text/css">
	<![CDATA[
		.st1 {fill:#fc60a8;stroke:none;stroke-linecap:butt;stroke-width:0.612}
		.st2 {fill:#3cafce;stroke:none;stroke-linecap:butt;stroke-width:1.19531}
		.st3 {fill:none;stroke:none;stroke-linecap:round;stroke-linejoin:round;stroke-width:0.75}
		.st4 {fill:#494368;font-family:Orbitron;font-size:5.83333em}
		.st5 {font-size:1em}
		.st6 {fill:none;fill-rule:evenodd;font-size:12px;overflow:visible;stroke-linecap:square;stroke-miterlimit:3}
	]]>
	</style>

	<g v:mID="0" v:index="1" v:groupContext="foregroundPage">
		<title>Page-1</title>
		<v:pageProperties v:drawingScale="0.0393701" v:pageScale="0.0393701" v:drawingUnits="24" v:shadowOffsetX="9"
				v:shadowOffsetY="-9"/>
		<g id="shape3-1" v:mID="3" v:groupContext="shape" transform="translate(250.825,-204.097)">
			<title>Sheet.3</title>
			<path d="M358.02 313.8 L266.22 229.59 L253.31 243.67 L329.81 313.8 L28.27 313.8 L104.77 243.61 L91.86 229.53 L0.06 313.8
						 L0 313.8 L0 369.31 C0 394.4 24.17 414.84 53.86 414.84 L110.47 414.84 C140.15 414.84 164.32 394.4 164.32
						 369.31 L164.32 332.84 L193.7 332.84 L193.7 369.31 C193.7 394.4 217.87 414.84 247.55 414.84 L304.16 414.84
						 C333.85 414.84 358.02 394.4 358.02 369.31 L358.02 313.8 Z" class="st1"/>
		</g>
		<g id="group7-3" transform="translate(19.1953,-197.858)" v:mID="7" v:groupContext="group">
			<title>Sheet.7</title>
			<g id="group8-4" v:mID="8" v:groupContext="group">
				<title>XMLID_2_</title>
				<g id="shape9-5" v:mID="9" v:groupContext="shape" transform="translate(112.75,-152.575)">
					<title>XMLID_3_</title>
					<ellipse cx="22.6079" cy="392.236" rx="22.6079" ry="22.6079" class="st2"/>
				</g>
				<g id="shape10-7" v:mID="10" v:groupContext="shape" transform="translate(72.1135,-71.6498)">
					<title>XMLID_4_</title>
					<ellipse cx="30.7236" cy="384.12" rx="30.7236" ry="30.7236" class="st2"/>
				</g>
				<g id="shape11-9" v:mID="11" v:groupContext="shape" transform="translate(0,-46.897)">
					<title>XMLID_5_</title>
					<ellipse cx="26.0281" cy="388.816" rx="26.0281" ry="26.0281" class="st2"/>
				</g>
				<g id="shape12-11" v:mID="12" v:groupContext="shape" transform="translate(134.894,0)">
					<title>XMLID_6_</title>
					<ellipse cx="37.7379" cy="377.106" rx="37.7379" ry="37.7379" class="st2"/>
				</g>
				<g id="shape13-13" v:mID="13" v:groupContext="shape" transform="translate(38.8972,-74.6642)">
					<title>XMLID_7_</title>
					<path d="M42.78 397.74 L3.83 414.84 L0 406.09 C0 406.09 0 406.09 40.4 391.31 L42.78 397.74 Z" class="st2"/>
				</g>
				<g id="shape14-15" v:mID="14" v:groupContext="shape" transform="translate(115.938,-52.6939)">
					<title>XMLID_9_</title>
					<path d="M28.93 411.77 C0 384.24 0 384.24 0 384.24 L5.51 378.38 L41.27 407.37 L33.27 414.84 L28.93 411.77 Z"
							class="st2"/>
				</g>
				<g id="shape15-17" v:mID="15" v:groupContext="shape" transform="translate(107.996,-119.474)">
					<title>XMLID_10_</title>
					<path d="M10.78 410.09 L27.36 370.27 L22.55 368.06 L0 410.84 L6.78 414.84 L10.78 410.09 Z" class="st2"/>
				</g>
			</g>
		</g>
		<g id="shape16-19" v:mID="16" v:groupContext="shape" transform="translate(33.0151,-47.3939)">
			<title>Sheet.16</title>
			<desc>awesome moleculer</desc>
			<v:textBlock v:margins="rect(4,4,4,4)" v:tabSpace="42.5197"/>
			<v:textRect cx="288.638" cy="360.238" width="577.28" height="109.213"/>
			<rect x="0" y="305.631" width="577.276" height="109.213" class="st3"/>
			<text x="96.35" y="339.24" class="st4" v:langID="2070"><v:paragraph v:horizAlign="1"/><v:tabList/>awesome<v:newlineChar/><tspan
						x="94.04" dy="1.2em" class="st5">moleculer</tspan></text>		</g>
	</g>
</svg>
