<svg xmlns="http://www.w3.org/2000/svg" viewBox="0 0 591.1 356.65"><g id="Layer_2" data-name="Layer 2"><g id="Layer_1-2" data-name="Layer 1"><g id="shape3-1"><path d="M589.65,90.51,497.85,6.3,484.94,20.38l76.5,70.13H259.9l76.5-70.19L323.49,6.24l-91.8,84.27h-.06V146c0,25.09,24.17,45.53,53.86,45.53H342.1c29.68,0,53.85-20.44,53.85-45.53V109.55h29.38V146c0,25.09,24.17,45.53,53.85,45.53h56.61c29.69,0,53.86-20.44,53.86-45.53Z" fill="#fc60a8"/></g><g id="group7-3"><g id="group8-4"><g id="shape9-5"><circle cx="135.36" cy="22.61" r="22.61" fill="#3cafce"/></g><g id="shape10-7"><circle cx="102.84" cy="95.42" r="30.72" fill="#3cafce"/></g><g id="shape11-9"><circle cx="26.03" cy="124.87" r="26.03" fill="#3cafce"/></g><g id="shape12-11"><circle cx="172.63" cy="160.05" r="37.74" fill="#3cafce"/></g><g id="shape13-13"><path d="M81.68,106l-38.95,17.1-3.83-8.75L79.3,99.59Z" fill="#3cafce"/></g><g id="shape14-15"><path d="M144.87,142l-28.93-27.53,5.51-5.86,35.76,29-8,7.47Z" fill="#3cafce"/></g><g id="shape15-17"><path d="M118.78,73.56l16.58-39.82-4.81-2.21L108,74.31l6.78,4Z" fill="#3cafce"/></g></g></g><g id="shape16-19"><rect x="13.82" y="239.04" width="577.28" height="109.21" fill="none"/><g style="isolation:isolate"><g style="isolation:isolate"><path d="M155.11,241.15v31.5h-32.2a9.08,9.08,0,0,1-9.1-9.1v-15h33.74v-7.42a1.55,1.55,0,0,0-1.54-1.54h-32.2V232H146A9.08,9.08,0,0,1,155.11,241.15Zm-7.56,15H121.37v7.42a1.55,1.55,0,0,0,1.54,1.54h24.64Z" fill="#494368"/><path d="M228.48,232l-15.26,40.6h-6.16L193.4,242.48l-12.88,30.17-.14-.07.07.07h-6.09l-16-40.6h8.05l11,27,11.69-27h8.61l12.39,27,10.29-27Z" fill="#494368"/><path d="M272.22,241.15v15H238.48v7.42a1.55,1.55,0,0,0,1.54,1.54h32.2v7.56H240a9.08,9.08,0,0,1-9.1-9.1v-22.4A9.08,9.08,0,0,1,240,232h23.1A9.08,9.08,0,0,1,272.22,241.15Zm-7.56,7.42v-7.42a1.55,1.55,0,0,0-1.54-1.54H240a1.55,1.55,0,0,0-1.54,1.54v7.42Z" fill="#494368"/><path d="M320.45,242.69h-7.56v-1.54a1.55,1.55,0,0,0-1.54-1.54h-23.1a1.55,1.55,0,0,0-1.54,1.54V247a1.55,1.55,0,0,0,1.54,1.54h23.1a9.08,9.08,0,0,1,9.1,9.1v5.88a9.08,9.08,0,0,1-9.1,9.1h-23.1a9.08,9.08,0,0,1-9.1-9.1V262h7.56v1.54a1.55,1.55,0,0,0,1.54,1.54h23.1a1.55,1.55,0,0,0,1.54-1.54v-5.88a1.55,1.55,0,0,0-1.54-1.54h-23.1a9.08,9.08,0,0,1-9.1-9.1v-5.88a9.08,9.08,0,0,1,9.1-9.1h23.1a9.08,9.08,0,0,1,9.1,9.1Z" fill="#494368"/><path d="M359.58,232a9.08,9.08,0,0,1,9.1,9.1v22.4a9.08,9.08,0,0,1-9.1,9.1h-23.1a9.08,9.08,0,0,1-9.1-9.1v-22.4a9.08,9.08,0,0,1,9.1-9.1Zm-23.1,7.56a1.55,1.55,0,0,0-1.54,1.54v22.4a1.55,1.55,0,0,0,1.54,1.54h23.1a1.55,1.55,0,0,0,1.54-1.54v-22.4a1.55,1.55,0,0,0-1.54-1.54Z" fill="#494368"/><path d="M437,241.15v31.5h-7.49v-31.5a1.57,1.57,0,0,0-1.61-1.54h-16a1.55,1.55,0,0,0-1.54,1.54v31.5h-7.56v-31.5a1.55,1.55,0,0,0-1.54-1.54h-16.1a1.55,1.55,0,0,0-1.54,1.54v31.5H376V232H427.9A9.08,9.08,0,0,1,437,241.15Z" fill="#494368"/><path d="M485.58,241.15v15H451.84v7.42a1.55,1.55,0,0,0,1.54,1.54h32.2v7.56h-32.2a9.08,9.08,0,0,1-9.1-9.1v-22.4a9.08,9.08,0,0,1,9.1-9.1h23.1A9.08,9.08,0,0,1,485.58,241.15ZM478,248.57v-7.42a1.55,1.55,0,0,0-1.54-1.54h-23.1a1.55,1.55,0,0,0-1.54,1.54v7.42Z" fill="#494368"/></g><g style="isolation:isolate"><path d="M172.62,325.15v31.5h-7.49v-31.5a1.57,1.57,0,0,0-1.61-1.54h-16a1.55,1.55,0,0,0-1.54,1.54v31.5h-7.56v-31.5a1.55,1.55,0,0,0-1.54-1.54h-16.1a1.55,1.55,0,0,0-1.54,1.54v31.5h-7.56V316h51.88A9.08,9.08,0,0,1,172.62,325.15Z" fill="#494368"/><path d="M212.09,316a9.08,9.08,0,0,1,9.1,9.1v22.4a9.08,9.08,0,0,1-9.1,9.1H189a9.08,9.08,0,0,1-9.1-9.1v-22.4A9.08,9.08,0,0,1,189,316ZM189,323.61a1.55,1.55,0,0,0-1.54,1.54v22.4a1.55,1.55,0,0,0,1.54,1.54h23.1a1.55,1.55,0,0,0,1.54-1.54v-22.4a1.55,1.55,0,0,0-1.54-1.54Z" fill="#494368"/><path d="M227,302.75h7.56v44.8a1.55,1.55,0,0,0,1.54,1.54h7.56v7.56H236.1a9.08,9.08,0,0,1-9.1-9.1v-44.8Z" fill="#494368"/><path d="M289.37,325.15v15H255.63v7.42a1.55,1.55,0,0,0,1.54,1.54h32.2v7.56h-32.2a9.08,9.08,0,0,1-9.1-9.1v-22.4a9.08,9.08,0,0,1,9.1-9.1h23.1A9.08,9.08,0,0,1,289.37,325.15Zm-7.56,7.42v-7.42a1.55,1.55,0,0,0-1.54-1.54h-23.1a1.55,1.55,0,0,0-1.54,1.54v7.42Z" fill="#494368"/><path d="M337.11,349.09v7.56h-32.2a9.08,9.08,0,0,1-9.1-9.1v-22.4a9.08,9.08,0,0,1,9.1-9.1H337v7.56H304.91a1.55,1.55,0,0,0-1.54,1.54v22.4a1.55,1.55,0,0,0,1.54,1.54Z" fill="#494368"/><path d="M384.78,316v31.5a9.08,9.08,0,0,1-9.1,9.1h-23.1a9.08,9.08,0,0,1-9.1-9.1V316H351v31.5a1.55,1.55,0,0,0,1.54,1.54h23.1a1.55,1.55,0,0,0,1.54-1.54V316Z" fill="#494368"/><path d="M392.06,302.75h7.56v44.8a1.55,1.55,0,0,0,1.54,1.54h7.56v7.56h-7.56a9.08,9.08,0,0,1-9.1-9.1v-44.8Z" fill="#494368"/><path d="M454.43,325.15v15H420.69v7.42a1.55,1.55,0,0,0,1.54,1.54h32.2v7.56h-32.2a9.08,9.08,0,0,1-9.1-9.1v-22.4a9.08,9.08,0,0,1,9.1-9.1h23.1A9.08,9.08,0,0,1,454.43,325.15Zm-7.56,7.42v-7.42a1.55,1.55,0,0,0-1.54-1.54h-23.1a1.55,1.55,0,0,0-1.54,1.54v7.42Z" fill="#494368"/><path d="M492,316v7.56H469.34a1.55,1.55,0,0,0-1.54,1.54v31.5h-7.56v-31.5a9.08,9.08,0,0,1,9.1-9.1Z" fill="#494368"/></g></g></g></g></g></svg>